<svg xmlns="http://www.w3.org/2000/svg" xmlns:xlink="http://www.w3.org/1999/xlink" width="500" zoomAndPan="magnify" viewBox="0 0 375 374.999991" height="500" preserveAspectRatio="xMidYMid meet" version="1.0"><defs><clipPath id="e9bd86d801"><path d="M 139 174 L 236 174 L 236 271.089844 L 139 271.089844 Z M 139 174 " clip-rule="nonzero"/></clipPath><clipPath id="7a7501e64a"><path d="M 220 103.839844 L 351 103.839844 L 351 268 L 220 268 Z M 220 103.839844 " clip-rule="nonzero"/></clipPath><clipPath id="38d12fd6ce"><path d="M 220 103.839844 L 349 103.839844 L 349 268 L 220 268 Z M 220 103.839844 " clip-rule="nonzero"/></clipPath><clipPath id="584a877674"><path d="M 24 103.839844 L 155 103.839844 L 155 268 L 24 268 Z M 24 103.839844 " clip-rule="nonzero"/></clipPath><clipPath id="637379a4f4"><path d="M 26 103.839844 L 155 103.839844 L 155 268 L 26 268 Z M 26 103.839844 " clip-rule="nonzero"/></clipPath></defs><path fill="#000000" d="M 233.089844 222.640625 C 233.089844 224.121094 233.019531 225.605469 232.886719 227.085938 C 232.75 228.570312 232.550781 230.050781 232.210938 231.535156 C 231.941406 233.015625 231.539062 234.433594 231.132812 235.847656 C 230.730469 237.261719 230.1875 238.675781 229.648438 240.023438 C 229.109375 241.371094 228.4375 242.71875 227.761719 244.066406 C 227.085938 245.347656 226.277344 246.628906 225.46875 247.910156 C 224.660156 249.121094 223.785156 250.335938 222.773438 251.480469 C 221.828125 252.625 220.816406 253.703125 219.738281 254.78125 C 218.660156 255.859375 217.582031 256.804688 216.433594 257.746094 C 215.289062 258.691406 214.074219 259.566406 212.863281 260.375 C 211.648438 261.183594 210.367188 261.992188 209.019531 262.667969 C 207.671875 263.339844 206.320312 264.015625 204.972656 264.554688 C 203.625 265.09375 202.210938 265.632812 200.792969 266.035156 C 199.378906 266.441406 197.894531 266.84375 196.480469 267.113281 C 194.996094 267.382812 193.511719 267.652344 192.027344 267.789062 C 190.546875 267.921875 189.0625 267.988281 187.578125 267.988281 C 186.097656 267.988281 184.613281 267.921875 183.128906 267.789062 C 181.644531 267.652344 180.164062 267.449219 178.679688 267.113281 C 177.195312 266.84375 175.78125 266.441406 174.363281 266.035156 C 172.949219 265.632812 171.53125 265.09375 170.183594 264.554688 C 168.835938 264.015625 167.488281 263.339844 166.140625 262.667969 C 164.859375 261.992188 163.578125 261.183594 162.296875 260.375 C 161.082031 259.566406 159.871094 258.691406 158.722656 257.746094 C 157.578125 256.804688 156.5 255.792969 155.417969 254.78125 C 154.339844 253.703125 153.328125 252.625 152.386719 251.480469 C 151.441406 250.335938 150.566406 249.121094 149.6875 247.910156 C 148.878906 246.695312 148.070312 245.414062 147.398438 244.066406 C 146.722656 242.789062 146.046875 241.441406 145.507812 240.023438 C 144.96875 238.675781 144.429688 237.261719 144.027344 235.847656 C 143.621094 234.433594 143.214844 232.949219 142.945312 231.535156 C 142.675781 230.050781 142.40625 228.570312 142.273438 227.085938 C 142.136719 225.605469 142.070312 224.121094 142.070312 222.640625 C 142.070312 221.15625 142.136719 219.675781 142.273438 218.191406 C 142.40625 216.710938 142.609375 215.226562 142.945312 213.746094 C 143.214844 212.261719 143.621094 210.847656 144.027344 209.433594 C 144.429688 208.015625 144.96875 206.601562 145.507812 205.253906 C 146.046875 203.90625 146.722656 202.558594 147.398438 201.210938 C 148.070312 199.929688 148.878906 198.648438 149.6875 197.371094 C 150.496094 196.15625 151.375 194.945312 152.386719 193.796875 C 153.328125 192.652344 154.339844 191.574219 155.417969 190.496094 C 156.5 189.417969 157.578125 188.476562 158.722656 187.53125 C 159.871094 186.589844 161.082031 185.710938 162.296875 184.902344 C 163.511719 184.09375 164.792969 183.285156 166.140625 182.613281 C 167.488281 181.9375 168.835938 181.265625 170.183594 180.726562 C 171.53125 180.1875 172.949219 179.648438 174.363281 179.242188 C 175.78125 178.839844 177.265625 178.433594 178.679688 178.164062 C 180.164062 177.894531 181.644531 177.625 183.128906 177.492188 C 184.613281 177.355469 186.097656 177.289062 187.578125 177.289062 C 189.0625 177.289062 190.546875 177.355469 192.027344 177.492188 C 193.511719 177.625 194.996094 177.828125 196.480469 178.164062 C 197.960938 178.433594 199.378906 178.839844 200.792969 179.242188 C 202.210938 179.648438 203.625 180.1875 204.972656 180.726562 C 206.320312 181.265625 207.671875 181.9375 209.019531 182.613281 C 210.367188 183.285156 211.582031 184.09375 212.863281 184.902344 C 214.074219 185.710938 215.289062 186.589844 216.433594 187.53125 C 217.582031 188.476562 218.660156 189.484375 219.738281 190.496094 C 220.816406 191.574219 221.828125 192.652344 222.773438 193.796875 C 223.714844 194.945312 224.59375 196.15625 225.46875 197.371094 C 226.277344 198.582031 227.085938 199.863281 227.761719 201.210938 C 228.4375 202.558594 229.109375 203.839844 229.648438 205.253906 C 230.1875 206.601562 230.730469 208.015625 231.132812 209.433594 C 231.539062 210.847656 231.941406 212.328125 232.210938 213.746094 C 232.480469 215.226562 232.75 216.710938 232.886719 218.191406 C 232.953125 219.675781 233.089844 221.15625 233.089844 222.640625 Z M 233.089844 222.640625 " fill-opacity="1" fill-rule="nonzero"/><path fill="#ffffff" d="M 222.636719 222.640625 C 222.636719 223.785156 222.570312 224.929688 222.4375 226.074219 C 222.300781 227.222656 222.167969 228.367188 221.894531 229.511719 C 221.625 230.660156 221.425781 231.738281 221.085938 232.882812 C 220.75 233.960938 220.347656 235.039062 219.941406 236.117188 C 219.46875 237.195312 218.996094 238.207031 218.457031 239.214844 C 217.917969 240.226562 217.3125 241.238281 216.703125 242.179688 C 216.097656 243.125 215.355469 244.066406 214.683594 244.945312 C 213.941406 245.820312 213.199219 246.695312 212.390625 247.503906 C 211.582031 248.3125 210.703125 249.054688 209.828125 249.796875 C 208.953125 250.535156 208.007812 251.210938 207.0625 251.816406 C 206.121094 252.421875 205.109375 253.03125 204.097656 253.570312 C 203.085938 254.109375 202.074219 254.578125 200.996094 255.050781 C 199.917969 255.523438 198.839844 255.859375 197.761719 256.195312 C 196.679688 256.535156 195.535156 256.804688 194.390625 257.007812 C 193.242188 257.207031 192.097656 257.410156 190.949219 257.546875 C 189.804688 257.679688 188.65625 257.679688 187.511719 257.679688 C 186.367188 257.679688 185.21875 257.613281 184.074219 257.546875 C 182.925781 257.410156 181.78125 257.277344 180.636719 257.007812 C 179.488281 256.804688 178.410156 256.535156 177.265625 256.195312 C 176.183594 255.859375 175.105469 255.457031 174.027344 255.050781 C 172.949219 254.578125 171.9375 254.109375 170.925781 253.570312 C 169.914062 253.03125 168.902344 252.421875 167.960938 251.816406 C 167.015625 251.210938 166.070312 250.46875 165.195312 249.796875 C 164.320312 249.054688 163.441406 248.3125 162.632812 247.503906 C 161.824219 246.695312 161.082031 245.820312 160.339844 244.945312 C 159.601562 244.066406 158.925781 243.125 158.320312 242.179688 C 157.710938 241.238281 157.105469 240.226562 156.566406 239.214844 C 156.027344 238.207031 155.554688 237.195312 155.082031 236.117188 C 154.609375 235.039062 154.273438 233.960938 153.9375 232.882812 C 153.597656 231.804688 153.328125 230.660156 153.128906 229.511719 C 152.925781 228.367188 152.722656 227.222656 152.589844 226.074219 C 152.453125 224.929688 152.453125 223.785156 152.453125 222.640625 C 152.453125 221.492188 152.519531 220.347656 152.589844 219.203125 C 152.722656 218.058594 152.859375 216.910156 153.128906 215.765625 C 153.328125 214.621094 153.597656 213.542969 153.9375 212.398438 C 154.273438 211.25 154.679688 210.242188 155.082031 209.164062 C 155.554688 208.085938 156.027344 207.074219 156.566406 206.0625 C 157.105469 205.050781 157.710938 204.042969 158.320312 203.097656 C 158.925781 202.15625 159.667969 201.210938 160.339844 200.335938 C 161.082031 199.457031 161.824219 198.582031 162.632812 197.773438 C 163.441406 196.964844 164.320312 196.222656 165.195312 195.484375 C 166.070312 194.742188 167.015625 194.066406 167.960938 193.460938 C 168.902344 192.855469 169.914062 192.25 170.925781 191.710938 C 171.9375 191.171875 172.949219 190.699219 174.027344 190.226562 C 175.105469 189.753906 176.183594 189.417969 177.265625 189.082031 C 178.34375 188.746094 179.488281 188.476562 180.636719 188.273438 C 181.78125 188.070312 182.925781 187.867188 184.074219 187.800781 C 185.21875 187.667969 186.367188 187.597656 187.511719 187.597656 C 188.65625 187.597656 189.804688 187.667969 190.949219 187.800781 C 192.097656 187.9375 193.242188 188.070312 194.390625 188.273438 C 195.535156 188.476562 196.613281 188.8125 197.761719 189.082031 C 198.839844 189.417969 199.917969 189.824219 200.996094 190.226562 C 202.074219 190.699219 203.085938 191.171875 204.097656 191.710938 C 205.109375 192.25 206.121094 192.855469 207.0625 193.460938 C 208.007812 194.066406 208.953125 194.808594 209.828125 195.484375 C 210.703125 196.222656 211.582031 196.964844 212.390625 197.773438 C 213.199219 198.582031 213.941406 199.457031 214.683594 200.335938 C 215.425781 201.210938 216.097656 202.15625 216.703125 203.097656 C 217.3125 204.042969 217.917969 205.050781 218.457031 206.0625 C 218.996094 207.074219 219.46875 208.085938 219.941406 209.164062 C 220.414062 210.242188 220.75 211.320312 221.085938 212.398438 C 221.425781 213.476562 221.695312 214.621094 221.894531 215.765625 C 222.097656 216.910156 222.300781 218.058594 222.4375 219.203125 C 222.570312 220.347656 222.636719 221.492188 222.636719 222.640625 Z M 222.636719 222.640625 " fill-opacity="1" fill-rule="nonzero"/><path fill="#ffffff" d="M 218.054688 222.640625 C 218.054688 223.648438 217.984375 224.660156 217.917969 225.605469 C 217.851562 226.613281 217.648438 227.558594 217.445312 228.570312 C 217.246094 229.582031 216.976562 230.523438 216.703125 231.46875 C 216.433594 232.410156 216.097656 233.355469 215.695312 234.296875 C 215.289062 235.242188 214.882812 236.117188 214.414062 236.992188 C 213.941406 237.867188 213.402344 238.746094 212.863281 239.554688 C 212.324219 240.363281 211.714844 241.171875 211.042969 241.980469 C 210.433594 242.71875 209.761719 243.460938 209.019531 244.203125 C 208.277344 244.875 207.535156 245.550781 206.792969 246.222656 C 205.984375 246.832031 205.242188 247.4375 204.367188 248.042969 C 203.558594 248.582031 202.679688 249.121094 201.804688 249.59375 C 200.929688 250.066406 199.984375 250.46875 199.109375 250.875 C 198.164062 251.277344 197.21875 251.613281 196.277344 251.882812 C 195.332031 252.152344 194.320312 252.421875 193.378906 252.625 C 192.367188 252.828125 191.421875 252.960938 190.410156 253.097656 C 189.398438 253.164062 188.386719 253.230469 187.445312 253.230469 C 186.5 253.230469 185.421875 253.164062 184.476562 253.097656 C 183.464844 253.03125 182.523438 252.828125 181.511719 252.625 C 180.5 252.421875 179.554688 252.152344 178.613281 251.882812 C 177.667969 251.613281 176.722656 251.277344 175.78125 250.875 C 174.835938 250.46875 173.960938 250.066406 173.082031 249.59375 C 172.207031 249.121094 171.332031 248.582031 170.523438 248.042969 C 169.710938 247.503906 168.902344 246.898438 168.09375 246.222656 C 167.351562 245.617188 166.613281 244.945312 165.871094 244.203125 C 165.195312 243.527344 164.519531 242.789062 163.847656 241.980469 C 163.242188 241.171875 162.632812 240.429688 162.027344 239.554688 C 161.488281 238.746094 160.949219 237.867188 160.476562 236.992188 C 160.003906 236.117188 159.601562 235.242188 159.195312 234.296875 C 158.789062 233.355469 158.453125 232.410156 158.183594 231.46875 C 157.914062 230.523438 157.644531 229.511719 157.441406 228.570312 C 157.238281 227.558594 157.105469 226.613281 156.96875 225.605469 C 156.902344 224.59375 156.835938 223.582031 156.835938 222.640625 C 156.835938 221.695312 156.902344 220.617188 156.96875 219.675781 C 157.039062 218.664062 157.238281 217.71875 157.441406 216.710938 C 157.644531 215.699219 157.914062 214.753906 158.183594 213.8125 C 158.453125 212.867188 158.789062 211.925781 159.195312 210.980469 C 159.601562 210.039062 160.003906 209.164062 160.476562 208.285156 C 160.949219 207.410156 161.488281 206.535156 162.027344 205.726562 C 162.566406 204.917969 163.171875 204.109375 163.847656 203.300781 C 164.453125 202.558594 165.128906 201.816406 165.871094 201.078125 C 166.613281 200.335938 167.351562 199.726562 168.09375 199.054688 C 168.902344 198.449219 169.644531 197.839844 170.523438 197.300781 C 171.332031 196.761719 172.207031 196.222656 173.082031 195.753906 C 173.960938 195.28125 174.902344 194.875 175.78125 194.472656 C 176.722656 194.066406 177.667969 193.730469 178.613281 193.460938 C 179.554688 193.191406 180.566406 192.921875 181.511719 192.71875 C 182.523438 192.519531 183.464844 192.382812 184.476562 192.25 C 185.488281 192.179688 186.5 192.113281 187.445312 192.113281 C 188.386719 192.113281 189.46875 192.179688 190.410156 192.25 C 191.421875 192.316406 192.367188 192.519531 193.378906 192.71875 C 194.390625 192.921875 195.332031 193.191406 196.277344 193.460938 C 197.21875 193.730469 198.164062 194.066406 199.109375 194.472656 C 200.050781 194.875 200.929688 195.28125 201.804688 195.753906 C 202.679688 196.222656 203.558594 196.761719 204.367188 197.300781 C 205.175781 197.839844 205.984375 198.449219 206.792969 199.054688 C 207.535156 199.660156 208.277344 200.335938 209.019531 201.078125 C 209.691406 201.75 210.367188 202.492188 211.042969 203.300781 C 211.648438 204.042969 212.253906 204.851562 212.863281 205.726562 C 213.402344 206.535156 213.941406 207.410156 214.414062 208.285156 C 214.882812 209.164062 215.289062 210.105469 215.695312 210.980469 C 216.097656 211.925781 216.433594 212.867188 216.703125 213.8125 C 216.976562 214.753906 217.246094 215.765625 217.445312 216.710938 C 217.648438 217.71875 217.785156 218.664062 217.917969 219.675781 C 217.984375 220.683594 218.054688 221.695312 218.054688 222.640625 Z M 218.054688 222.640625 " fill-opacity="1" fill-rule="nonzero"/><path fill="#000000" d="M 187.511719 254.511719 C 169.984375 254.511719 155.6875 240.226562 155.6875 222.707031 C 155.6875 205.1875 169.984375 190.902344 187.511719 190.902344 C 205.042969 190.902344 219.335938 205.1875 219.335938 222.707031 C 219.335938 240.226562 205.109375 254.511719 187.511719 254.511719 Z M 187.511719 193.460938 C 171.332031 193.460938 158.25 206.601562 158.25 222.707031 C 158.25 238.8125 171.398438 251.953125 187.511719 251.953125 C 203.625 251.953125 216.773438 238.8125 216.773438 222.707031 C 216.839844 206.535156 203.691406 193.460938 187.511719 193.460938 Z M 187.511719 193.460938 " fill-opacity="1" fill-rule="nonzero"/><path fill="#ffffff" d="M 194.1875 222.640625 C 194.1875 223.109375 194.117188 223.515625 194.050781 223.917969 C 193.984375 224.324219 193.847656 224.796875 193.648438 225.199219 C 193.511719 225.605469 193.242188 226.007812 193.039062 226.34375 C 192.769531 226.683594 192.5 227.019531 192.230469 227.355469 C 191.894531 227.691406 191.558594 227.960938 191.21875 228.164062 C 190.882812 228.433594 190.476562 228.636719 190.074219 228.769531 C 189.667969 228.90625 189.265625 229.039062 188.792969 229.175781 C 188.386719 229.242188 187.917969 229.3125 187.511719 229.3125 C 187.105469 229.3125 186.636719 229.242188 186.230469 229.175781 C 185.828125 229.109375 185.355469 228.972656 184.949219 228.769531 C 184.546875 228.636719 184.140625 228.367188 183.804688 228.164062 C 183.464844 227.894531 183.128906 227.625 182.792969 227.355469 C 182.457031 227.019531 182.1875 226.683594 181.984375 226.34375 C 181.714844 226.007812 181.511719 225.605469 181.375 225.199219 C 181.242188 224.796875 181.105469 224.390625 180.972656 223.917969 C 180.90625 223.515625 180.835938 223.042969 180.835938 222.640625 C 180.835938 222.167969 180.90625 221.761719 180.972656 221.359375 C 181.039062 220.953125 181.175781 220.484375 181.375 220.078125 C 181.511719 219.675781 181.78125 219.269531 181.984375 218.933594 C 182.253906 218.597656 182.523438 218.257812 182.792969 217.921875 C 183.128906 217.585938 183.464844 217.316406 183.804688 217.113281 C 184.140625 216.84375 184.546875 216.640625 184.949219 216.507812 C 185.355469 216.371094 185.757812 216.238281 186.230469 216.101562 C 186.636719 216.035156 187.105469 215.96875 187.511719 215.96875 C 187.917969 215.96875 188.386719 216.035156 188.792969 216.101562 C 189.199219 216.171875 189.667969 216.304688 190.074219 216.507812 C 190.476562 216.640625 190.882812 216.910156 191.21875 217.113281 C 191.558594 217.382812 191.894531 217.652344 192.230469 217.921875 C 192.570312 218.257812 192.839844 218.597656 193.039062 218.933594 C 193.308594 219.269531 193.511719 219.675781 193.648438 220.078125 C 193.78125 220.484375 193.917969 220.886719 194.050781 221.359375 C 194.117188 221.832031 194.1875 222.234375 194.1875 222.640625 Z M 194.1875 222.640625 " fill-opacity="1" fill-rule="nonzero"/><path fill="#000000" d="M 187.511719 229.445312 C 183.804688 229.445312 180.769531 226.414062 180.769531 222.707031 C 180.769531 219 183.804688 215.96875 187.511719 215.96875 C 191.21875 215.96875 194.253906 219 194.253906 222.707031 C 194.253906 226.414062 191.21875 229.445312 187.511719 229.445312 Z M 187.511719 216.101562 C 183.871094 216.101562 180.972656 219 180.972656 222.640625 C 180.972656 226.277344 183.871094 229.175781 187.511719 229.175781 C 191.152344 229.175781 194.050781 226.277344 194.050781 222.640625 C 194.050781 219.066406 191.152344 216.101562 187.511719 216.101562 Z M 187.511719 216.101562 " fill-opacity="1" fill-rule="nonzero"/><path fill="#000000" d="M 187.511719 259.363281 C 167.285156 259.363281 150.769531 242.921875 150.769531 222.707031 C 150.769531 202.492188 167.21875 186.050781 187.511719 186.050781 C 207.804688 186.050781 224.257812 202.492188 224.257812 222.707031 C 224.257812 242.921875 207.804688 259.363281 187.511719 259.363281 Z M 187.511719 189.285156 C 169.105469 189.285156 154.070312 204.242188 154.070312 222.707031 C 154.070312 241.101562 169.039062 256.128906 187.511719 256.128906 C 205.984375 256.128906 220.953125 241.171875 220.953125 222.707031 C 220.953125 204.242188 205.984375 189.285156 187.511719 189.285156 Z M 187.511719 189.285156 " fill-opacity="1" fill-rule="nonzero"/><path fill="#000000" d="M 218.121094 224.121094 L 218.121094 221.292969 L 200.523438 219.203125 C 200.253906 218.058594 199.78125 217.046875 199.175781 215.96875 L 210.097656 202.085938 L 208.074219 200.066406 L 194.1875 210.980469 C 193.175781 210.375 192.097656 209.972656 190.949219 209.632812 L 188.859375 192.046875 L 186.027344 192.046875 L 183.9375 209.632812 C 182.792969 209.902344 181.78125 210.375 180.703125 210.980469 L 166.8125 200.066406 L 164.792969 202.085938 L 175.714844 215.96875 C 175.105469 216.980469 174.703125 218.058594 174.363281 219.203125 L 156.769531 221.292969 L 156.769531 224.121094 L 174.363281 226.210938 C 174.632812 227.355469 175.105469 228.367188 175.714844 229.445312 L 164.722656 243.328125 L 166.746094 245.347656 L 180.636719 234.433594 C 181.644531 235.039062 182.726562 235.441406 183.871094 235.78125 L 185.960938 253.367188 L 188.792969 253.367188 L 190.882812 235.78125 C 192.027344 235.511719 193.039062 235.039062 194.117188 234.433594 L 208.074219 245.347656 L 210.097656 243.328125 L 199.175781 229.445312 C 199.78125 228.433594 200.1875 227.355469 200.523438 226.210938 Z M 187.511719 228.097656 C 184.546875 228.097656 182.117188 225.671875 182.117188 222.707031 C 182.117188 219.742188 184.546875 217.316406 187.511719 217.316406 C 190.476562 217.316406 192.90625 219.742188 192.90625 222.707031 C 192.90625 225.671875 190.476562 228.097656 187.511719 228.097656 Z M 187.511719 228.097656 " fill-opacity="1" fill-rule="nonzero"/><g clip-path="url(#e9bd86d801)"><path fill="#000000" d="M 235.851562 217.382812 L 233.019531 216.777344 L 235.582031 215.429688 L 232.820312 205.050781 L 229.917969 205.1875 L 232.078125 203.234375 L 226.683594 193.933594 L 223.917969 194.808594 L 225.46875 192.382812 L 217.851562 184.769531 L 215.425781 186.320312 L 216.300781 183.554688 L 206.996094 178.164062 L 205.042969 180.320312 L 205.175781 177.425781 L 194.792969 174.660156 L 193.445312 177.222656 L 192.839844 174.390625 L 182.117188 174.390625 L 181.511719 177.222656 L 180.164062 174.660156 L 169.78125 177.425781 L 169.914062 180.320312 L 167.960938 178.164062 L 158.65625 183.554688 L 159.53125 186.320312 L 157.105469 184.769531 L 149.488281 192.382812 L 151.039062 194.808594 L 148.273438 193.933594 L 142.878906 203.234375 L 145.035156 205.1875 L 142.136719 205.050781 L 139.375 215.429688 L 141.9375 216.777344 L 139.105469 217.382812 L 139.105469 228.097656 L 141.9375 228.703125 L 139.375 230.050781 L 142.136719 240.429688 L 145.035156 240.292969 L 142.878906 242.25 L 148.273438 251.546875 L 151.039062 250.671875 L 149.488281 253.097656 L 157.105469 260.710938 L 159.53125 259.164062 L 158.65625 261.925781 L 167.960938 267.316406 L 169.914062 265.160156 L 169.78125 268.058594 L 180.164062 270.820312 L 181.511719 268.257812 L 182.117188 271.089844 L 192.839844 271.089844 L 193.445312 268.257812 L 194.792969 270.820312 L 205.175781 268.058594 L 205.042969 265.160156 L 206.996094 267.316406 L 216.300781 261.925781 L 215.425781 259.164062 L 217.851562 260.710938 L 225.46875 253.097656 L 223.917969 250.671875 L 226.683594 251.546875 L 232.078125 242.25 L 229.917969 240.292969 L 232.820312 240.429688 L 235.582031 230.050781 L 233.019531 228.703125 L 235.851562 228.097656 Z M 221.761719 248.917969 L 213.804688 256.871094 L 204.03125 262.464844 L 193.175781 265.363281 L 181.914062 265.363281 L 171.0625 262.464844 L 161.285156 256.871094 L 153.328125 248.917969 L 147.734375 239.214844 L 144.765625 228.367188 L 144.765625 217.179688 L 147.734375 206.332031 L 153.328125 196.628906 L 161.285156 188.675781 L 171.0625 183.085938 L 181.914062 180.1875 L 193.175781 180.1875 L 204.03125 183.085938 L 213.804688 188.675781 L 221.761719 196.628906 L 227.359375 206.332031 L 230.257812 217.179688 L 230.257812 228.367188 L 227.359375 239.214844 Z M 221.761719 248.917969 " fill-opacity="1" fill-rule="nonzero"/></g><g clip-path="url(#7a7501e64a)"><path fill="#ed1f29" d="M 255.203125 201.886719 L 339.546875 163.40625 C 339.34375 163.8125 328.625 188.136719 316.824219 194.066406 C 311.027344 196.964844 296.058594 200.875 282.171875 204.042969 C 268.347656 207.207031 255.675781 209.703125 254.324219 209.972656 C 254.324219 209.972656 254.324219 209.972656 254.257812 209.972656 L 322.082031 198.582031 C 322.082031 198.582031 320.871094 214.824219 308.261719 217.046875 C 295.722656 219.203125 252.84375 218.125 252.84375 218.125 L 310.015625 223.515625 C 310.015625 223.515625 296.597656 236.722656 284.058594 234.972656 C 271.988281 233.355469 252.910156 225.671875 251.492188 225.066406 C 251.425781 225.066406 251.425781 225.066406 251.425781 224.996094 L 289.992188 245.953125 C 289.992188 245.953125 281.765625 250.46875 271.988281 246.832031 C 262.484375 243.257812 249.335938 229.78125 248.730469 229.175781 L 266.597656 257.007812 C 266.597656 257.007812 251.359375 254.175781 246.234375 236.925781 C 243.132812 254.648438 227.15625 264.285156 222.097656 266.980469 C 222.097656 266.980469 222.097656 266.980469 222.03125 266.980469 C 221.15625 267.449219 220.617188 267.652344 220.546875 267.71875 C 242.054688 245.820312 242.191406 223.71875 240.839844 211.183594 C 240.839844 211.050781 240.773438 210.847656 240.773438 210.644531 C 240.167969 204.242188 242.796875 197.976562 247.515625 193.796875 C 248.527344 192.921875 249.539062 192.179688 250.683594 191.507812 C 254.191406 189.484375 257.5625 187.53125 260.867188 185.511719 C 262.617188 184.433594 264.4375 183.355469 266.125 182.277344 C 322.21875 146.964844 343.457031 113.339844 347.90625 105.523438 C 348.511719 104.378906 348.78125 103.839844 348.78125 103.839844 C 348.78125 103.839844 349.050781 104.984375 349.390625 106.871094 C 350.804688 115.832031 353.230469 142.316406 334.152344 156.9375 C 332.734375 158.015625 330.984375 159.230469 328.894531 160.578125 C 307.925781 174.390625 256.820312 201.007812 255.203125 201.886719 Z M 255.203125 201.886719 " fill-opacity="1" fill-rule="nonzero"/></g><path fill="#000000" d="M 339.546875 163.40625 C 339.34375 163.8125 328.625 188.136719 316.824219 194.066406 C 311.027344 196.964844 296.058594 200.875 282.171875 204.042969 C 274.214844 205.726562 264.976562 207.679688 254.324219 209.972656 C 254.324219 209.972656 254.324219 209.972656 254.257812 209.972656 C 254.257812 209.972656 254.257812 209.972656 254.191406 209.972656 C 312.441406 193.796875 339.140625 163.878906 339.546875 163.40625 Z M 339.546875 163.40625 " fill-opacity="0.2" fill-rule="nonzero"/><path fill="#000000" d="M 322.152344 198.648438 C 322.152344 198.648438 320.9375 214.890625 308.328125 217.113281 C 295.789062 219.269531 252.910156 218.191406 252.910156 218.191406 C 252.910156 218.191406 292.417969 218.460938 322.152344 198.648438 Z M 322.152344 198.648438 " fill-opacity="0.2" fill-rule="nonzero"/><path fill="#000000" d="M 310.082031 223.515625 C 310.082031 223.515625 296.664062 236.722656 284.125 234.972656 C 272.058594 233.355469 252.976562 225.671875 251.5625 225.066406 C 251.492188 225.066406 251.492188 225.066406 251.492188 224.996094 C 252.035156 225.199219 283.722656 231.871094 310.082031 223.515625 Z M 310.082031 223.515625 " fill-opacity="0.2" fill-rule="nonzero"/><g clip-path="url(#38d12fd6ce)"><path fill="#000000" d="M 260.933594 185.578125 C 260.125 186.050781 259.382812 186.519531 258.574219 186.992188 C 258.503906 187.058594 258.4375 187.128906 258.304688 187.128906 C 256.753906 188.070312 255.136719 189.015625 253.585938 189.957031 C 253.449219 190.023438 253.3125 190.09375 253.179688 190.226562 C 252.371094 190.699219 251.5625 191.101562 250.753906 191.640625 C 249.605469 192.316406 248.59375 193.058594 247.582031 193.933594 C 242.863281 198.109375 240.234375 204.378906 240.839844 210.78125 C 240.839844 210.914062 240.910156 211.117188 240.910156 211.320312 C 242.257812 223.851562 242.121094 245.953125 220.617188 267.855469 C 220.683594 267.789062 221.222656 267.585938 222.097656 267.113281 C 222.097656 267.113281 222.097656 267.113281 222.167969 267.113281 C 227.359375 264.082031 244.210938 251.007812 246.234375 205.726562 C 246.371094 203.839844 246.84375 201.953125 247.582031 200.132812 C 249.539062 195.414062 253.449219 191.640625 258.234375 189.6875 C 275.160156 182.746094 298.6875 172.234375 311.296875 162.597656 C 346.558594 135.78125 348.78125 103.839844 348.78125 103.839844 C 348.78125 103.839844 329.164062 144.066406 260.933594 185.578125 Z M 260.933594 185.578125 " fill-opacity="0.2" fill-rule="nonzero"/></g><path fill="#000000" d="M 289.992188 246.023438 C 289.992188 246.023438 281.765625 250.535156 271.988281 246.898438 C 262.484375 243.328125 249.335938 229.851562 248.730469 229.242188 C 249.203125 229.582031 265.382812 242.046875 289.992188 246.023438 Z M 289.992188 246.023438 " fill-opacity="0.2" fill-rule="nonzero"/><path fill="#000000" d="M 266.597656 257.007812 C 266.597656 257.007812 251.359375 254.175781 246.234375 236.925781 C 246.234375 236.925781 252.304688 246.964844 266.597656 257.007812 Z M 266.597656 257.007812 " fill-opacity="0.2" fill-rule="nonzero"/><g clip-path="url(#584a877674)"><path fill="#ed1f29" d="M 119.820312 201.886719 L 35.476562 163.40625 C 35.679688 163.8125 46.402344 188.136719 58.199219 194.066406 C 63.996094 196.964844 78.964844 200.875 92.851562 204.042969 C 106.675781 207.207031 119.351562 209.703125 120.699219 209.972656 C 120.699219 209.972656 120.699219 209.972656 120.765625 209.972656 L 52.871094 198.648438 C 52.871094 198.648438 54.085938 214.890625 66.695312 217.113281 C 79.234375 219.269531 122.113281 218.191406 122.113281 218.191406 L 64.941406 223.582031 C 64.941406 223.582031 78.359375 236.789062 90.898438 235.039062 C 102.964844 233.421875 122.046875 225.738281 123.460938 225.132812 C 123.53125 225.132812 123.53125 225.132812 123.53125 225.066406 L 85.03125 246.023438 C 85.03125 246.023438 93.257812 250.535156 103.035156 246.898438 C 112.539062 243.328125 125.6875 229.851562 126.292969 229.242188 L 108.425781 257.074219 C 108.425781 257.074219 123.664062 254.242188 128.789062 236.992188 C 131.890625 254.714844 147.867188 264.351562 152.925781 267.046875 C 152.925781 267.046875 152.925781 267.046875 152.992188 267.046875 C 153.867188 267.519531 154.410156 267.71875 154.476562 267.789062 C 132.96875 245.886719 132.832031 223.785156 134.183594 211.25 C 134.183594 211.117188 134.25 210.914062 134.25 210.710938 C 134.855469 204.3125 132.226562 198.042969 127.507812 193.867188 C 126.496094 192.988281 125.484375 192.25 124.339844 191.574219 C 120.832031 189.554688 117.460938 187.597656 114.160156 185.578125 C 112.40625 184.5 110.585938 183.421875 108.898438 182.34375 C 52.804688 146.964844 31.566406 113.339844 27.117188 105.523438 C 26.511719 104.445312 26.242188 103.839844 26.242188 103.839844 C 26.242188 103.839844 25.972656 104.984375 25.636719 106.871094 C 24.21875 115.832031 21.792969 142.382812 40.871094 156.9375 C 42.289062 158.015625 44.039062 159.230469 46.128906 160.578125 C 67.097656 174.390625 118.203125 201.007812 119.820312 201.886719 Z M 119.820312 201.886719 " fill-opacity="1" fill-rule="nonzero"/></g><path fill="#000000" d="M 35.476562 163.40625 C 35.679688 163.8125 46.402344 188.136719 58.199219 194.066406 C 63.996094 196.964844 78.964844 200.875 92.851562 204.042969 C 100.808594 205.726562 110.046875 207.679688 120.699219 209.972656 C 120.699219 209.972656 120.699219 209.972656 120.765625 209.972656 C 120.765625 209.972656 120.765625 209.972656 120.832031 209.972656 C 62.582031 193.796875 35.882812 163.878906 35.476562 163.40625 Z M 35.476562 163.40625 " fill-opacity="0.2" fill-rule="nonzero"/><path fill="#000000" d="M 52.871094 198.648438 C 52.871094 198.648438 54.085938 214.890625 66.695312 217.113281 C 79.234375 219.269531 122.113281 218.191406 122.113281 218.191406 C 122.113281 218.191406 82.539062 218.460938 52.871094 198.648438 Z M 52.871094 198.648438 " fill-opacity="0.2" fill-rule="nonzero"/><path fill="#000000" d="M 64.941406 223.515625 C 64.941406 223.515625 78.359375 236.722656 90.898438 234.972656 C 102.964844 233.355469 122.046875 225.671875 123.460938 225.066406 C 123.53125 225.066406 123.53125 225.066406 123.53125 224.996094 C 122.992188 225.199219 91.300781 231.871094 64.941406 223.515625 Z M 64.941406 223.515625 " fill-opacity="0.2" fill-rule="nonzero"/><g clip-path="url(#637379a4f4)"><path fill="#000000" d="M 114.089844 185.578125 C 114.898438 186.050781 115.640625 186.519531 116.449219 186.992188 C 116.519531 187.058594 116.585938 187.128906 116.71875 187.128906 C 118.269531 188.070312 119.890625 189.015625 121.441406 189.957031 C 121.574219 190.023438 121.710938 190.09375 121.84375 190.226562 C 122.652344 190.699219 123.460938 191.101562 124.269531 191.640625 C 125.417969 192.316406 126.429688 193.058594 127.441406 193.933594 C 132.160156 198.109375 134.789062 204.378906 134.183594 210.78125 C 134.183594 210.914062 134.113281 211.117188 134.113281 211.320312 C 132.765625 223.851562 132.902344 245.953125 154.410156 267.855469 C 154.339844 267.789062 153.800781 267.585938 152.925781 267.113281 C 152.925781 267.113281 152.925781 267.113281 152.859375 267.113281 C 147.667969 264.082031 130.8125 251.007812 128.789062 205.726562 C 128.652344 203.839844 128.183594 201.953125 127.441406 200.132812 C 125.484375 195.414062 121.574219 191.640625 116.855469 189.6875 C 99.933594 182.746094 76.402344 172.234375 63.796875 162.597656 C 28.464844 135.78125 26.242188 103.839844 26.242188 103.839844 C 26.242188 103.839844 45.859375 144.066406 114.089844 185.578125 Z M 114.089844 185.578125 " fill-opacity="0.2" fill-rule="nonzero"/></g><path fill="#000000" d="M 85.03125 246.023438 C 85.03125 246.023438 93.257812 250.535156 103.035156 246.898438 C 112.539062 243.328125 125.6875 229.851562 126.292969 229.242188 C 125.890625 229.582031 109.640625 242.046875 85.03125 246.023438 Z M 85.03125 246.023438 " fill-opacity="0.2" fill-rule="nonzero"/><path fill="#000000" d="M 108.425781 257.007812 C 108.425781 257.007812 123.664062 254.175781 128.789062 236.925781 C 128.789062 236.925781 122.71875 246.964844 108.425781 257.007812 Z M 108.425781 257.007812 " fill-opacity="0.2" fill-rule="nonzero"/><path fill="#ed1f29" d="M 187.511719 148.988281 L 190.546875 155.121094 L 197.289062 156.0625 L 192.433594 160.847656 L 193.578125 167.519531 L 187.511719 164.351562 L 181.511719 167.519531 L 182.65625 160.847656 L 177.804688 156.0625 L 184.546875 155.121094 Z M 187.511719 148.988281 " fill-opacity="1" fill-rule="nonzero"/><path fill="#ed1f29" d="M 210.433594 159.769531 L 212.457031 163.878906 L 216.90625 164.484375 L 213.671875 167.652344 L 214.414062 172.167969 L 210.433594 170.011719 L 206.390625 172.167969 L 207.199219 167.652344 L 203.960938 164.484375 L 208.480469 163.878906 Z M 210.433594 159.769531 " fill-opacity="1" fill-rule="nonzero"/><path fill="#ed1f29" d="M 164.589844 159.769531 L 166.613281 163.878906 L 171.128906 164.484375 L 167.890625 167.652344 L 168.632812 172.167969 L 164.65625 170.011719 L 160.679688 172.167969 L 161.421875 167.652344 L 158.183594 164.484375 L 162.699219 163.878906 Z M 164.589844 159.769531 " fill-opacity="1" fill-rule="nonzero"/></svg>